<mxfile host="Electron" modified="2023-11-11T18:14:34.645Z" agent="Mozilla/5.0 (Macintosh; Intel Mac OS X 10_15_7) AppleWebKit/537.36 (KHTML, like Gecko) draw.io/22.0.3 Chrome/114.0.5735.289 Electron/25.8.4 Safari/537.36" etag="g6MD9yWTisw9iW5VyMU7" version="22.0.3" type="device">
  <diagram name="Page-1" id="bgIiDAVIS2aO5e38r-K1">
    <mxGraphModel dx="1514" dy="1242" grid="0" gridSize="10" guides="1" tooltips="1" connect="1" arrows="1" fold="1" page="0" pageScale="1" pageWidth="850" pageHeight="1100" math="0" shadow="0">
      <root>
        <mxCell id="0" />
        <mxCell id="1" parent="0" />
        <mxCell id="izmZIxoykNqFLqpH7VWU-1" value="" style="shape=image;verticalLabelPosition=bottom;labelBackgroundColor=default;verticalAlign=top;aspect=fixed;imageAspect=0;image=data:image/png,iVBORw0KGgoAAAANSUhEUgAABGQAAABGCAYAAACKX0LrAAAAAXNSR0IArs4c6QAAAGxlWElmTU0AKgAAAAgABAEaAAUAAAABAAAAPgEbAAUAAAABAAAARgEoAAMAAAABAAIAAIdpAAQAAAABAAAATgAAAAAAAACQAAAAAQAAAJAAAAABAAKgAgAEAAAAAQAABGSgAwAEAAAAAQAAAEYAAAAA9TicJQAAAAlwSFlzAAAWJQAAFiUBSVIk8AAAQABJREFUeAHtXQd8FNX2PvTeEnoNvfcO0hF4gICAFMvfXhBRngroU/SJimB/IigICqKCqCAdpPfee01Cb6GX0P/nu+Eus5vZ3dnN7GaTnMMv7M7MnXvvfHPn7pzvnpLqLgtZlJs3b9IzzzxDjz32GLVp08btWd999x1FR0fTkCFD3JYxOzBr1iyaMGEC1apVi1599VVKlSqVWbGQ3tfncB/T/g0rMsx0v+wUBAQBQUAQEAQEAUFAEBAEBAFBQBAQBASBlIdA6kBcsj9Eypw5cxQZU7FiRXr55ZeTJBkTCCylTkFAEBAEBAFBQBAQBAQBQUAQEAQEAUFAEEh+CKT15ZI00QJLGU9y69YtT4fjHZsyZQpNnjyZypcvT6+//jqlS5cuXhnZIQgIAoKAICAICAKCgCAgCAgCgoAgIAgIAoJAckHAJ0Imbdq0lCFDBjp58qTH6z937hxlz57dYxkchLcUXJRmz55NlStXpr59+1L69Om9nicFBAFBQBAQBAQBQUAQEAQEAUFAEBAEBAFBQBBIygj47LIUHh5Ox48f93jNMTExlDdvXo9lQMaMGTNGkTE1atRQljFCxniETA4KAoKAICAICAKCgCAgCAgCgoAgIAgIAoJAMkHAJwsZXHOePHlo3759dOPGDVNrliNHjhAIGZRzJ7dv3yYE/l2zZg3VrVtXxYxJndpnbshd9bJfEBAEBAFBQBAQBAQBQUAQEAQEAUFAEBAEBIGQRsBnFqR27dp09epVWrp0qemFLVmyRO2vVKmS6XEQOV999ZUiY5o2bWoLGRMZGUm//vorTZo0iU6dOmXaruwUBAQBQUAQEAQEAUFAEBAEBAFBQBAQBAQBQSBUEPCZkIFFS9asWQkpqmNjY52uY+/evTR//nyqXr06lSxZ0ukYNq5du0afffYZbdmyhTp27EjPPvssmVnGHDt2jEaNGqVizMSrxGXHpUuXaNCgQYQsTdOnT6ehQ4daOs+lGtkUBAQBQUAQEAQEAUFAEBAEBAFBQBAQBAQBQSBoCPjsspQxY0bq3r27iv/y0UcfUZs2bahIkSIEMgaZkpCJqWvXrqYXsH37dtq9ezflzp1bBQcGgWIm+/fvp40bN1K3bt0oZ86cZkUc++A+ZczqBAuZM2fOeHSZcpwsXwQBQUAQEAQEAUFAEBAEBAFBQBAQBAQBQUAQSAQEfCZk0Ee4GqVJk4bGjRtHI0eOdHQ7V65c9Oabb1LRokUd+4xfcA4EhAnci7yJTrPtqRxco5DR6eLFi6pY6dKlhYzxBJgcEwQEAUFAEBAEBAFBQBAQBAQBQUAQEAQEgURHIBVnO7rrby/gshQVFaXSYMNKplixYoqo8bc+f89DP2BRg5Tc1apVS5Q+6L73OdxHf3X6HFZkmNO2bAgCgoAgIAgIAoKAICAICAKCgCAgCAgCgkDKRcAvCxkNF9yXypUrp/70vsT4RD8aNGiQGE1Lm4KAICAICAKCgCAgCAgCgoAgIAgIAoKAICAI+IyAz0F9fW5BThAEBAFBQBAQBAQBQUAQEAQEAUFAEBAEBAFBQBBwQkAIGSc4ZEMQEAQEAUFAEBAEBAFBQBAQBAQBQUAQEAQEgcAjIIRM4DGWFgQBQUAQEAQEAUFAEBAEBAFBQBAQBAQBQUAQcEJACBknOGRDEBAEBAFBQBAQBAQBQUAQEAQEAUFAEBAEBIHAIyCETOAxlhYEAUFAEBAEBAFBQBAQBAQBQUAQEAQEAUFAEHBCQAgZJzhkQxAQBAQBQUAQEAQEAUFAEBAEBAFBQBAQBASBwCMghEzgMZYWBAFBQBAQBAQBQUAQEAQEAUFAEBAEBAFBQBBwQkAIGSc4ZEMQEAQEAUFAEBAEBAFBQBAQBAQBQUAQEAQEgcAjkDbwTUgLQOD69esChCAgCAgCgoAgIAgIAoKAICAICAKCgCAgCAgCCgGxkJGBIAgIAoKAICAICAKCgCAgCAgCgoAgIAgIAoJAkBEQQibIgEtzgoAgIAgIAoKAICAICAKCgCAgCAgCgoAgIAgIISNjQBAQBAQBQUAQEAQEAUFAEBAEBAFBQBAQBASBICMghEyQAZfmBAFBQBAQBAQBQUAQEAQEAUFAEBAEBAFBQBAQQkbGgCAgCAgCgoAgIAgIAoKAICAICAKCgCAgCAgCQUZACJkgAy7NCQKCgCAgCAgCgoAgIAgIAv4icPLSCdp7Zre/p8t5goAgIAgIAiGEgBAyIXQzpCuCgCAgCPiKwPXr1yk2NtbX06S8ICAICAKCACNw+87tJIfDzN0z6L0F/6Woc1FJru/B6PCdu3foLv9LbEmKYyuxMQt0+6FwT+7evUsYoyKCgEYgrf7i6+fNmzdp5syZtHv3bjp9+jQVLlyYqlatSs2aNaNUqVJ5rQ4KxMKFC2nnzp108uRJSps2LRUqVIgaNGhANWrU8Hq+FBAEBAFBQBAgGjhwIJ09e5aGDBlCuXPntgTJhg0b6MSJE05lixQpQlWqVHHal5gbMTExtG3bNmratGlAu3Hi0nGKPh/taKNUeCkKz5xbKTonL9/HqGLeSpQ1Q1ZHOU9fft86gS7EnncUSZsqHXWt3I2yZ8zu2Jecv8zaM4OOXDjsdIkPV+xCebLkddrny0bU2UhafXglpU6VmrpV6Wn51Ju3b9D2k9to3ZG1lCNDDupe9VHL56LgmsOrad+ZvdSgaEMqEV7Sp3NdCx84s58WHJzntLtc3orUOKKx077kuhGIcXH7zi1adGABHTp/mBqXaEKlwkt7hQ8K2bKoJbQochEdu3iMLt24TOGZwql4zgh6hJ/TYrkivNZhR4GrN6/SpK0TqWjOolSPx1fmdJksV1uzcE36h8fS9F1TqU+D1yyflxQKJmT+xFhYHLWYInm+SJcmHZUKK0ntyj1EVfJXDdqlx96KpYmbf6Wtp7bTsUvHKHuG7FQlX2XqWukRyp+tgNd+BOI58dpoEiiQkPnz3NUYmrDlV9p5Zg+d4e+Fshekqvmq8G9JD8qYNmPQrn7z8Y00e88s2hezn27cuUmFsxWk1qXbUJMSzdRvm6eOHLt4lGbxuXfu3nIUK5qzGLUp09axHegvdrwvHTt2jA4dOkT16tULdHeTVP1+ETIXLlygL7/8kg4ePEi5cuVSZMzevXtp48aN6q9v376KYHGHxPbt22n48OF0+TL/CIaHU9GiRVXRXbt20Zo1axQp89JLL1kidty1kVL2HzhwgHA/zCRz5swUERFBGTN6nmyOHDlCp06dMqtCKWggyzxJZGQknTt3zlOReMdA4OXNG/dy7s/5FSpU8HhdFy9epHXr1imlE9/z5cunxinIPuB17do1tR2vY7JDEEhiCGClxVeZMWMGHT7srDDXrVs3ZAiZO3fu0IgRIwg/3A888IDH3xNfr921/JKDi2jK7qmO3U9We5L+VbYtTdv1N608vMqxv1+j/lSzYE3HtqcvS1jZO3vt/pwIxaBFqZZuCZn1R9cRXBDMpHHxJpSNX+iDISAfzlw57bWp0rlLU5nc5dyWWxa9nCLPRTodf4BJB38JmR2s2AxePJhu371NuTLmZHKru8eX1+tMwmxgAmbdkXW06cQmir11XfWlTsFaTn2ysrHtxFaaf3ABzdg7kx4u19FnQsfYxqGL0bQwcrFxF12/dSPFEDJ2jwtYQHy6dAhtYcINUjRnEa+EzKnLJ+mzZUPpMCs36VOnU2RI5cyV6NTV07T++AbayOOlV+2XqBE/d4GWy9cv0cKDC5ViNoGJmU9bD6VcmcMtNVulQDWKyFGUVh1ZTd0udad82fJbOi8pFPJ1/tTX9NP60TT3wDw1N5RkIuYmP/cYG1tObqcnqj7OxEx7XTRgnxdjL9LgJR9T1PkoCsuUk2oWqEkxPLaWH1pBG49tpP80fcfrGLX7OQnYxQa5Yn/nz+hz0TRk6WA6x4skOTLmoCp5K9AB/n2atW82bT6xhd5v9h7lyJQr4FezYP88GrPxR9VOaV74yZwuM+1mt8OR60fxosF26l2/j8ffNZB7+C0ig+VXRb6WYBIydrwvbdq0iaZMmUIZMmSg6tWrBxz3pNKAZ03bzVVMnDhRkTGPPPIIdejQQZWCUjBhwgSaPXs24WW/U6dOpmdDcf/iiy8oa9as1K9fPycFAFYz48ePp6VLl1KxYsWobdvgsX6mnU0CO0GMwWXBncBaCeRH586dqXLlyqbFxowZE0850wV79epFNWt6VkKmTZumVrL1OVY+H374YWrXrp0qOmzYMAJp4ou8++67imwyO2fJkiX0559/KtIFpFT27NkJJCBwAjEDZS9LliyEOkQEgZSIwPvvv09GIgfboSQrV66k6OhoatGiRUDJGFyzqyKTP1s+BUX+rHGfGpf8Plp31ChQnfo1HqBOT0WerUZ/4pe0mKtndVNOn6lTpVEEkdPOAG1M3z2N9p894LX2tqX/5ZGQ+aTVEIe7wIqo5fTtmm+91umpwJQdkxUZ80z1p5jYauXxpRX1TNoygWbum6WqLJK9ENUpVIf+2jXFUxNujz1X+wVqXLwx/W/lNzR1z3TqWLFzgldUP27xMZXIHWdt421suO1YEjxg97jYfXqXUrhLh5WiXnVfpoJ8r73Jb5t/UWRM/cL16NlazztZvW05vpm+XvUVjd4wmsd32Xhzg7e6fT2el+eYkZ1+oD+2/a6Uw7n75lCPqo9ZqgbjpkP5jvTN6mG8aj6Tnq71rKXzAl0ohq0PVkQt4zmrnbJQ8bc9X+ZPtAErOJAxULgHNR/kuHcHYw7QkGWf0IRtE6g6z8kFc3gfI/72Gef9tX2SImOaFGtEmDvSpUmvqlvOmIxYO4I+X/YZfd3+G49ziN3PyQomyHMyOQQrz+Qgvs6fY/n3FWRMp3IdFKGOZwdWcj+uH0MLIhfQb2w506veKwGF5jQvdPy0aSxlTZ+F+jb4N1Vgy0jIeV64Gbb6G1rB1p/FcxWn9uXjdGqzztQqVJsmdp/o+G3tO+NVs2KW9/nzrNrxvoRFNvAEkyZNUnqpt0V/yxeUxAv6TMhgxRIvyw0bNnSQMcAAin/Pnj1py5YtypWpTZs2phYMIGJADjRu3Jhy5MjhBB8sOZ599lllyrRo0SIhZJzQMd8YPHgwbd26lcaNG0cvvvgiwe1Ay/nz5wmWSytWrKBvvvmGHnroIad7psu9+eabdOnSJbV569Yt+uCDD6hixYoEyxWc642QwYloF+0bBcQb9nfr1s24Ox4RgvauXLlCIPrgvvbaa685lTdu7Nu3T12rcZ/x++bNm+mXX35RJNSjjz5KpUvHmS9D+YTFzO+//64sZNKnj/uRNJ4r3wWBpIjAK6+8QnAhDQsL86n7VlxLfarQpsIgTKdOnaqIGPyOBFqgFBklX5a4leZ8bEp8X1KRa7n7x9x/s6psD2k1lC5fv6Iqunj9Ar2/8H1lah994RAtiVoUNEIGHcjHxNNbjf9jelF/srKBF8eMaTOYHjfutHrtxnPcfcfKYJHshalVmX+5K+K0H+bfBdkkvQIrIAWyx7kIzI9c6FTGlw1YAzVli4m/dk6mExePU0RYcV9Oj1+W35fsxCd+A6G7x87rhvk8pD27pFghY1C2WckWVLtwHWoY0QibTlKVrU6eYtLvu7XfK2sGWMoFWjKxmxLcJuYfmK/cp3xpr17RBkw0TKSFPEd0YXeYUHCJ3Mqk1m9MflTOX4WKh5Xw5XLilfVlrExiUos1ERrwwAAHGYMK4WbYrVI3JtnG0Iw90+iFOr3itWPXjrPXzrIFw0IqmoPfh5kghHullgd4vB1nqywQw3P3zGZi92F9yPTTl2s3rcCw89ct46lEzpLJhpBhhdPy/AmSdRdbocA6Eu6qGtc0qdPQM7Weoc0nN9ESJqxgdZknSx4DavZ+nblrGt1i98pnajzjIGPQQk62zHm13qv05px+NJUtdVuUepAwJ3gSfQ2eylg55s+z6voe5M/7EnR/cAALFiyg5cuXB9wt3QoWoVDm/mxhsTf//POPsjBo3z6+6R9e8GHVAksXKL9mki5dOkUMuJIxumzq1KkVYwbFHEqGiGcEgCPcviB58uSh/PnzO/7KlSunCBisfsPFB5Yse/bsiVchrEX0eXBdAnnRpEkTggsDLEvcuUQZK4Lpma5Df+Jeg4DT2/rTVRHMli2bKoN+gCjR5cw+9bUa2zZ+R1yjnDlz0uuvv+4gY3AcbdapU4fgTpcmTRrjKfJdEEjSCMCasFSpUoS5MzkICGZYUmL+gUtsoKVA1vum/niBznvPQqbAvU+0n5tjyuiVzkD0By5JIA7wd/DsQdXEg6VaU/1CdXm19RAhfkqwJBP70+u+GD8v3big3COARTteaQym3Obgh768LCMmB15s0X+7JHeWuPhM6ItIaCAA8haSO7N1RQqkixkZo6+oEseVgBy9eETvCvgnYlggPtUtdsnzRTBftS/bnm7evklz2KUuFEQHKr3jhyutv/2HS8remH1UOV9F0zhPTYo3VXFcVh9eQ3BnDJREsxsM3CrblX3IiYzR7XVQ1nUZmNReoXcF5fM234s7/C8lyoIDC9RlI46QK5GRJnVaalsalvp3lVVXIPHZd3a/mqdAoroK3KXacRwYxLLafnKr6+GAbfvzrNr1vtS6dWully1evDhg15fUKvbLQiaC45LADcZM8BINF5j9+/dTo0bxVyDMznHdBzIG5AIUepGEIwC3HVivvPPOO/Tbb78RCBp3yhusn0CiILgnVtwReHn16tWEhyfUBdY9UVFRys0BJI+ZwGKnbNmyDosgszLJZR8CvRqz74Dg0vcdL7KIAYX4QZUqVfIaDBakHLBFecTfQQBuzAFGi6xg4Ia4U7DcQj9g1YVrKlCggCIkQCRinzuyV/cPQcj1tcBUEtdQvHhx0/OuXr1KsDSDIGAuMIUV4I0bN1QQcx3/CvFYsB+4Ik6RcX68ffu2CnyulQfETkK7cKHDtWCuxDGMy5IlS3p10cF1gjhFvUYx3l/j/kB+R180lsePH1fugcATJBHmEX9k2bJl6jQEePckeJnYdWoH3TC8YJdnM2AdoA9B/Lawf/hhDvZZpUAVXrGtavqSnDNzGGVgs3K8qOdhsiEtv6RB8mct6Gi+UBDjMyyNXqr6U7dIXX6BC6Olh5bTksjFCbfKcFyN71+u3rxGw1cPVyf2rtebsrDZtUjwELhy4woHFt6jggufvHKKbnDcGRBEiJNRv1hD03FtZ+9ucCwOxPHxJlB4YBkBRSepyhG2SoMUYVIvKUjTEs3prx1/0lyOT/FQ+U5eV9fNrgmE77qja1X8qGv8rIdxHBsEn32A3W6Oc9DjvNnysitQTrNTQ2LfqStx8beaRDQ17Q/I9NoFayv3FMTqAmEbCDlxLw6Ykcw3toPfmTrcD8zpcFWBdYRIYBE4cfk4/5bno7J5zGOe1Stan8azBVH0uaiAduQ4W/Mhbow7qc9EzcTtv9P2E9vYgq+uu2KJvt+u9yXol3jnRWIgvAfjHTyli8+/mlBmypcv7xY3uB1hVROKiz+ydi0H4mPrmmCYqvvTv6R6DkiZrl270k8//UTA2Cy6NZRZZDWBdQysSKBUQbGE21JiETIgWY4ePar6AuwLFiyoXKh0QGDj/UCfYakDwsCTdOnSRQWU9lQmqR/D89e/f3+nywARB2UZJoKIsQNyQ0u1atXo+eefV/jpffgEUTB37lxlXaUt1kDqaHIBrm1PPvmkz+4yxjasfIfij9hAf/zxhyNmEkgNjA8ISGIQM8gehIDhrlZYKAMCBOdrRh5lUC8E5G/Hjh3VODeeO3ToUDX+UAZWZnAB1G3C4qx3797qOAKUaZk1axb9+9//Vj822AerLZTVMmDAABWzCS56wFG3hzLoB/xr4W6n9+vz9CdIUzzHrgLXPxBlwRK4r44dO1YRe2jTOC4yZWIzfHZV9JWUB/GHOQi/IWXKlPF4KVFno+jDxR85lXmPg/OV5CwrcTFEZvOxuPuLeCJY2Xm32UCVQcl4EpTIAky4wBKlgCEDBsz/s3DQvSucCSW/wYrGeK7d3w9xHxAMF/EHQCzB5QaWIQgI+Vj1Jxxkkd3t6vrScZBT4OEq49jcH0TAw6zwlc9TwfWwbAcQgdHrfuBAwAsdKVLTcEwhzA0wf4fAzP2dpu8GVGGGBcLQZZ9ausqv/vUVWybdJzMtnRQihUA+/MBxJSA1/QgAnRiXASUfMZ0msjvhQrYG8CVwLUjt4auGKTfE+33H8x83b8IN6Oqta9S+THt6nOefUJVTl0+prhVmVyF3AhdGyDl2KwoUIaMJFmTPcifnrsct8OxniwnEBBEJLAInOHZLtbzm8TPRchgvesAF90ysfzqr1d5jbOBdwp3Ayg2yJya+F4O7cxJjv53vS9BDQcggbqwQMkQ+ETJQHqDoeYtVgJVaK24uGExIvYoVYiiHcKdZv349wdUG8U5E7EUAK86wkEGwTDNCBhmusOpuXJlGrCDEXfHEYIK0MVpieOs1lGeMESuCzF2jRo1SMXBAKsEdCYGGzQQvqbAwAOFUv359NY7MyoFoCoQA108//VRZT/hSP5TXzz77LB4Z4ksdrmWh0CIWD0gU3DsE28b3H374QWUyA/4IvA1yFQTFvHnzlIUH3Lq0gKz4+uuvVWp6MNkI4I17B9IAxCwmUfiAguh5++23FVmmz7X7EwQEiAj0A8QJxhzGA4JB436DBIGlBgT9diUzYOny8ccfqxhFsOJ78MEHFXkBcgX3bfLkyYqkwhz06quvOs5/5pln1PyEgOU7d+5UPxpPPfWUagNZgL79Ni5Yaa1atQhEH6xpEKQaZAtwgTRt2lT1F1Y9IF3wDMKipkSJEuocjEeQifo44mfBAgftuF4H6kNMJ7j3aVIMlk5z5szBoaAJsEBcKowFxATDuIE7IchQzOcgqBDXCn0DYWdVcC9xXbA8Mrt2Yz0RYREc62QAK6a31arSnP1z6RwHxh20+X3OoHBQxUKBGTDSCs/dO0etjm48uoEeLB3f2q8gW8MoQiars4tLQY4jA1Pj/E7xZIy9sPc7UvFCkJEIAgya8qrvHzv+4JgWG6hOgFfOnucglJqkVB3g/1ZGr2Af+2Uqpk1XjsUgElwEbt6+rlLmls9dnsdyeSYcSyli7jQTZH/v+FuN65Ec86R/47cC3rEWxVtQ9ULxs2L8uY0DmbJlSUTOCCY841yoA94ZGxqA5Q/mhqu3rqrYQOs4yxLG/3M1n1UWSDY0EZQqWpZqTZM5IPesvbM440obyxZKf3BmJ8SEQmroR/jZLscZW1IzIbsvZi/t5KwvsLqB3DJYIQblgnxs5MyVM+qMcFau3Un+e+6LV9gtJFCCQNCQzUc3UbUCNeI1s5MtOrcxrpAL1+KImXiFZIdtCFy6fpGtCWM9zklxBENBjuEWF0fTtsZdKsL8vYytX2Ounom3KIRscWM3/aTOOBd7weXM0Nu0631JW5jjve///u//vL7zhR4S9vbIJ0IGyjpelr2ZokNptkrIQJGAUqcFyimCzMLSQcReBPByjxV0kGBmsmrVKkWUQOnWAuIG1hSwknHHYEIR9UXgOuVOYMUABVkLrGMgUFChgHuTJ554ghDoGAGF4TqCzFJQfGE94U3B81a3t+Ow2kEMJVdXEm/nwb3K7iDDuFadVQt1g5ABuQJiAlYLCMCt2+zevbsKsIUMVEYByQHFG9ZqsK4yCsoiy1rt2rUVCfXzzz8TLD8CgTFIOZAxyLjTo0cPpzaQQatly5bKfeiTTz5xm60LhApcIRE0HGSdFhAKIIBBKCHiO4gpzEeoEwKyBOMO54PEeuONNxzByhGUDM8GzodLIK4drpbABGQVxgGIFvQRYxH3GYQMyBic+/jjjztcyNAWni+QaCiDP8yjyEbmKrBChEWTFrQRTEIG5DncUoHLf/7zHyd3N+yDuyPGHohUuB+BQIJbnBWB2xPEzALO9XzET9AvvSqGAhMyw+5l82lYpIHKcKGD4z1f5wVqzYqKXiV1ras1B4u9xavFMP83SgfOeLAyeiXVY/ehQAtWq5dzcMEwXkmrmO8+Xo2YnPmDXRKWHFzslpCBe9YFTrdqVfJkzWvqduQaGBWZIcZwxpn0bK3zSr0+rOilsdqEbeVusjIYy24UqVhVTEzBizvk4r0V7mD1xV32D6QQx7g+ceU4u+ZtVS53sJYwCsbUIbZusSrp0qSlQh6sDErnLhVvVX8xBzEFGYM4Lv2ZIE1vIeCz1f54K4cUwxB9b7yVdz2O8f3rtt+cdjcu2pBalmrltC8YG/j9uOCnMob4Mw8Wb64yiy2LWhpvHnPX/x2ndypy7122LNSuniiLDDD4K8BEtJpTuW9mgkw1d+7edjp0807cSv+NO9c5ts0Np2NwZcO8bbegH5As6d27yebKEOdydZ1JOFex6zkBGQlLzH8OzleuhEY3mSh2iRm26htH05evB4YYcsUcDd7leQDXaHYM7lzJVayMC1x7WMZcFBl7Lh4Mdo0LVFwxXwVFnv+4/kd6/YE3HL+laOPnDT/RdibrIBgXIGj8ndNUJSb/2fms2vW+pN/zoPdhcdVbuAGTy0pWu3wiZKxeuS9KGRTo5s2bE7LnIIAsLGTgJgDFJKXfHKt4+1IOSqHRVUWfC+IDRAhWu42C8lWrVlVWCFDcocAGUs6cOUMffvih300gzgcUc7i3IP4NXFggIPqgXMMNAoo9LAzsFrShU3nbXbcd9cF6AfcQ1iGuAsLKKLAcmT59uiIbPBFuERERilj48ccfCcSJlYxcxnasfAdRgvsKUsjd3AIiBEQTiAnXMrAQAtkIEsRIxhjbxjkgmGDd8ddff6m6XElhBDIHGaJFx8+BpZGxTWCJVVaQ1yBLXAXEDggxHc/H9TisA2HGibnQjJBxLR/sbTxXINz79evnRMYY+wE8YF0E8gn3zyohExMTo6pxJQeNdXv73r1iN3q4UnyS2JOZOl6cjS/Pug34cgfLn3sbx7vRqTmNSkteJk8q8cr1phOb3cYd+GnjWFrLMSCsSs9KPbxm+cCL4ndMcMHM+qXaL6qYElbrt6sc+oCUvojv45qG3K42rNajybw5e2dTKXaLQyDmUJAyYaU5vstOiuU4MxkyOStXiJ/01jzrljMYd791mxDvsgrlLEwtS7Sgcnmc3dW3HN9Eo9b/QNlYEf5P47eZTAyLd26gdiAWCOItQfIZAnD70l6hHIVpZIfv6QCnet97Zi8tilrM8T1WUGa+nieqP+lQmnyp09+yhbMVUim8Nx5dTzUK1fK5mrbl2hGsBGfsnk5Nijdz+k1yV1khJlwQDBeZaOoWqRevGIIf72NcahSqGe8Y4s68M/8dFcQ23kHe8cHCD+LthmvID51GBzRAerxGHTvMSSUctus5QV196r1G/138AbvTfkhdynem4uHFKTImkqbvma7mMcyl368bSdfYFcxu+d/yL2nV0TWm1W7m35cn/nwi3jErvwXxTkp2O8zHhp3jArG+Nh7bqNyPBy36L7Ut0065nS6NXKye+6r5KlOuTOG0mOegG+y+5EquJwRyu59Vu96X8D4NPR/vk9D9UrrO7xMho5UOHUvC3QDRMRbcHTfuh8ICsyX8QVHGiiqUO5j7w/1Dr+Ibz5Hv/iMAJVHfR2MtsEDAfjNXJsS0gLK9adMm5ZpgPM/u73CHM7o4IOOK0YLKSntQpFu1aqX+4GIHtwmQTYj/AZIBynmfPn0C6mJjpZ/BLvP00087uaN5ah944TlGjBhMlJ4Elh0gF6KiomwnZEAeon0rZCDiHMEyw3V8HzhwQHXfmxskrgEWTohBc+jQIacsXagAMWvMxIx0MSun94EU8kRsov945jAPWnER1fUG6xN4wuoHzypc1zwJ4u7ABQu/GZ6uWdeB64XolRO93+rnU6xEtWE3paQoSyPjlEtYxLhKM1awsIK2nF2H2ptkOMrFATfDMsWtALuea7adJYN3Qnrazr9p5+ndVK9QHcsr7mZt+bsPQS8HLhhIsGKANC/Zwt+qbDmvZFgplc52y8lt1HtGH3qZFSuzjBm2NOZSCWKbrDy0koOunlIm78iagvhG4RyEeteZnS6l729CAfZlXKRPY26ZnJnbeo7d2YxyMOYgfbXyK0qbKg31a9SPCuYoZDwc0O9/bf+TU5D/pVb9m0U0MbX2stoBZDgBAYI/uDN+teILRWxghfrJmk9brSbB5dqwlR7G1qfLP6OSuUrQx60+8alOjIVGHHsKCt36o+tUam9vFbQs2YqJ3HXqPhbJXohdl0qp9OGwvirMaeZxT5+q9axpNbk5tlVb7rO2QtCFDpw7QHuYxKnLwWvD72Um08eypc/GFjn2L+rxT6YSWL9oq0jdpv68ecfZWkfvx6ddzwnqKhFegt5o0JeGrxlBv++YhF1KYEH2fNVHOdZTDrWdJZ33OfjeqZY/6hVrQLlM3LZA1OVgArl+kfvWwagUY7xi/vvWmJYbSiIFNc1y/Xasxx7DmstM7BwXwPolToWOgOzr2TUScycEMcGQkhuWkJ9znC4kFbCTjEEbofSsoj9GwbseCBm8+yHkREoWcw3DDSJQSKDswvTfkyBlKV7Y/RGscoM0GD16tAo+CusZEfsQQJwKKNlGAd7IpIRVfcSFcBUch8BtyRhjxLWcHduwMjH2D4GGIe6UYW9tQmnEH2J8QEDwYGzBpenzzz+Pp7x7q8/TcQQ5/f77731O145rfuuttwJOPmqLDk/XoI9pVzFYi+DPimh3EytlrZbBeIVYCVYLdxmkf3YVWGnA0stKCmWNEe5l6dKlXauyZdvVGsmsUp3eHdY9GL+hJBgbMC+Fm5dVgZukxtbTOZpM05+eypodK5ozMPGhzNqycx+y6KxjxQjy9vx341UNP3gIsi2ZETJPs9L0NJkrTvEqs7BjP6+aT+K4NeG8YvccEw9GgUk1Ag9WL1A9IO4Huq3U/KKaJW0miqNjOCg3v8gmpsClTae8zsBKZboguOYgcO+YdaMIMXxgLQTJyhmuoMwdYsslpEn1JPk4WPWIDiM9FfHr2KnLJ2no8iFqJfffrHyWyV3Or3r8PQmKUjpWXGA5FXvTs7LlSxtwOXm/+X+p9/TeNI/dTrpX7enkyuNLXb6WjTW40uAe+yMPlWvPhMwSms7xZGoXvh8Pzl1dJdkF7ZNWQ2nStom0n62EjOMM5+D5f77Wc1StYI14VcBN6rFq8S0uFnDcGRAyHSo8zPGOgqNgZb3nqnSCM9kUDysRr6/YgWC+kGwZ4+smdj8nVXluHNlxFFte7afIsweVRV1EWHFFgMDCLq4f2dSnnf/BysnM0glxgornKk7/V+MpO5sL+bpg6Qba6fjF4x77ithz2e+5tBkL2j0uQLa83uhNgqvlNk5vDZKmaoFqDkI5+kI0E3bxx6exT/58D6Vn1bX//r7rudaTHLZ9ImRwwVAUvCleMDu3aqJuBiJiMCCIJywbhJAxQ8i/fVjNBlnmqrQiTggYSgR4heJqJljdRjmcb0WxNavDn33Vq1dXGWuMcYs2b96sFEK4oBgFhBL+3LmCoCziWyD7y9ixY5U7hQ4qZazH3+9wg4ISrwksq/XgPH8JJ6tt+FpOkwCIpQILGCuiz7FS1moZX7E0qxcWLFbr0eUwjgIl3iyO0C6eR4gmZtRGiPyn7zNcvKwKXM6sCOLmgAxDWm9P2fys1JWUyqw5vIpucOyFipzBKNxNKtRDFw+rwMMHzuwnKFKBklgmf75d/S0TAHfp5bq9CC9zRtlwbB19x0FkP239WcCylaA9ZLka0uYzmrtvDv208SdawaQEVp8TS/Zz2umjF4+qlf/e9fsEJVbKj+tGsxvNEpXlq1P5jqxs1XeyAMCL/a+bf1aKdLBwQaDMIUuHqHgnT9d4Omgufcbra1fuIQ583Yg+WjRIuWg8x4SmXanYjSmSYZnkTsE39seO7/PYigHK4wdMCJm5T1ppA/F/anEwWazAI4As4sB4E7hEvlL/VVUMsbiQnvfoxSMcKH07rWJFfsiyodSjUnfqVLGzt6oS7TjSdEPQd3f3S1va5c3iHCsvUJ2GognXRvwZZQu7nkJKu+w3lpHv9iCQLk06RXAcvXzMbYUguk9zoN3q+e/H5XNb2KYD+G1rWOwBp9qwCHKZ57EqHjJCOZ2QTDbwrgfBu19KF58JGcRqQLwXBFk1cyfCijYIGZTzV2AxAEscX4Oj+tteSjkPFi4QV0IG7krw5YMbj9k9xTlQkt577z3l7gO3jmAJxoHRYgbtwpoH5JIrIYMAq4gB4m3lXl8/XC/sJGTg/4iYSMlBNC4YD8hKlFiirSowr8D9xR/BtSDILsaMt3kpKipKNaGv35/2vJ2D2DCI4+NpZWDdunUq/gyySYWaABu4dCG2lDGmjh391MSN/pG2o86kUAcCcWL17N8N34hHgOj+7zu9lwYuHEhL2SUhkITMuA0/0onLJ6hj2Yc4EGFl3bzjU7so3L6XdtlxIEBfWpRsSb9unaD6FKAmLFWrFboWpVsGhYw5yyv6i6OXUBF2Hfmg5YcEtyFXwYt9MLMawSLls2Wf0bFLx6hTuY7UunQb1y4FbTsHu+k9wC46E9i6A/FkSthojZHtnksfVrA9CaxBkKpeC2KtYMXbHzl5+TSV4Qxa/pIxus0OFTooQgaxZDwRMkjNvINdpGpy6mUdswoKLGJt4a9+0QbUuVJn+nDRhzRr3yx6iAnBxAjqra/L02ferHEkyx52sWzAsTrMZO2RtWo3CKjEkpUctH0Tx+uBe5in4NmJ1T+zdu0c42b1B3ofYo/ti9lPmE/NYlwhdhvmtXz3xlCg+2NWPywhR3FcIUjdovXNiiTLfeARQnnxMdigp/a1QVivIFMLFBwzQTBVSEIsZHbs2KHaQIpbKwKz/l9//VUFj0xpL/JW8EEZBLedOXOmsnYwBsxEoFfEhkEwVndkDM4vWLCgOleTOtiXWKItYVzbhxsFrKpgxeNJQC5Bgmnp46k/oXgMLocIgozn2YpFh9VrQDR1xBRBViaQDtoixd35sNiCRQYCyeJcb4LYN9rNSZeF1RLIjz/++EPvMv3Ej8PUqVNV9iBNBJkWTOBOjFE8i+4EzxieSRCOoWY5hT7DygzxhYCV3aJjx3hzi7W73cSsD2b2u9j6ogavbLtaoxj7VTpPGc56UoCDAq40zZZhLOvv99WHVimLDJi3d6vSw99qbD0PRFUmdlFB5onEFN1+lnTmVqR29w3jAqu3iAtiRsagPbi67eEUxcEQ9GX4ym84COxeasJ9gjuPUaDgv/D3cypNunF/IL9rVxU7R8Y1zui1+sgatkTKSEVzuXeBxHj4k7OfzT3wj+Mvfdr0fl8uh4FndzRnazR/KoP7WHn+28gBl6M9ZNjacGQdfbHiS9rGGbrcCeLS1OR56SKnBD5y4Yi7Yom+vwIHPUd8GsTP0Zm3jJ0CDvvYfagMW6UYs0kZywT6+6nLp5SlH8iv52q9EOjmbKnf7jFuS6d8rKQuB+bH3DV3zyzTMxccWKj2J2YsnYlbJtChC4epWv6qVCcIGR1NgUiEndDXoc9h4V0sZMj3PJJYLYf7CFLixsY6++4iaOr8+fMJbibugvMgJTFSyJpl+sF4wA1CHA5YG1jJ2IIYI4MGDVLZVRCwFRmaAulukAhjNsFNbtu2TaWpBeGCzCfGlXkoxQi42aBBA6/toAwUJVihhKrg3v/www9u47iAtJk4caKaAFKSS4Q/9wtjBSQIgtyeP3/ebRUgwPBMW4k18/fffyvyFITuyJEjlbWT24rvHUBAX5BC48aNc3tfQSz+8ssv9NFHH9HcuXOdqkT8GVikIDA1iBCz+QFkDOrH+H700UctBaB1asSHDZBdwAHXbyQPMSeCWIY7nU4r7kO1QSsKQgbBv5EifPHixW7bBc4ggpFuHTFkrAjmfMxPrqSalXOTapnlbB0DaVzc2QXT7HqacgDTKzevcNDO9WaHE7QvhlNnj97wgwoo2KcuUlz7bECboPblZGcEEFgVgngcZgJrgAFzB6gMS2bH7d43jlOzrmV3NWQDeaHOS2w74mw9condp6C4n+bAw6EqM3ZNoxenvkAz2XoE7jmucpXJmOGrhrE11klqUbyFw3LEtRy2oeQjK5oWEBfl2eUwFKRD+Q6qGzN3uyfNsSoPmbZrqimJgWO4lyCn0nPMpNwuAXpxPFQEc1Xz4k2VpcPk7c4LLyAKh68ZprrarXL3ROnyssgl9PY/A1TMp86ceSmhVlDBuohQHuNWMXigWGMVtHnegfnKks543qKDC1R2QhCYVYLosqT7AKudT9n9c8beGZQzQw7qVadXvHlVl02On4jvCIGhh6dQE8nx2s2uyec3LpioQ0EaM2aMUn7atGmjgjWCjJk8ebJ6mUZ6WncCogVkDl7koSRh9RppYGG2BMuYGTNmKFclpFR1F8/EWDfcp4xZnUDoQHnz5ppgrCMpf0fGoF27dqlLQIYqxHnRAgUPq/EgUMA+wiVJBxSFIrhmzRqCuxIEZeDCA3cepIY2CmK2wKoEllGQKVOmqFXyJk2aOLksQIkC+aMVXrQP1wbcbwgUrYYNG8YL+Lx27Vp1z/BwgjDR5dVJJv+hL54ytmBMDBw4UGXMwfVgHIFQAE6o+8qVK9SrVy9FyphUnyx2IW2yDsyrlVtYu+j4H/oiEb8G99FMQGTABWv8+PH0zjvvEJ51kFh4tkCEIpYUMMUYwjOIzFbeBP0yCra9kYFQ0pF1aPny5QSXImRLggULgviiDxhjyMSFe4x4N4gR5CpIHw1LOoxdzDOYe+AOBDISVjXTpk1zuMEZM41h7O/Zs0dVB3IBY7pp06ZO1eO5gzuUa8Dr2bM5PS6PP1dXqxdffFFZwIC8BiGqA6Bj7ENq1KihcDezWMM9RWBq/YyhvL7PuL/GVQY8b/ih025AKIvzUE4/y9gHQdsYJ67PHs51vS6UB2kF8gokGOYR4AkrOh30HX1CO3hW8fxZtfTB2CpXrpwaV5iP3BH76MNCfsE6euEovhKC4UGm7pxCK6LiXDPVDv4PAUAfrfZ4yJnbI0vN4oMLac2xOFP69YfX0qajm6hMntIqba3uPz6ns9J04tJJirl2Ru3+g5WOXSd30kMVOlIeznZih0SeO6h82LHSPGuvewuuqPNRdjQX0Dq2c8DE1YcQqP5+MxeYMNhzdh/9sHaUYyeekXZl21GB7AUd+0LlC+5rBU4zvYHjgbw3fyDV5ixARXIWoSPnj6hUxeuPrVdxfnR/x20ax5Y0Waht2bYqU47eb8fnUiYNYQkCycJWHD+u/zFetZduxAXgT+37Ol+8ugK1AxYvsUy6jN/yC83m2ESNOY5D4RxF1RyBuWT2/lns2nCeLSnKUE/OiONJ4OqgBVYP3as4WwzpY4nxiSC8RTmezHKOTdW1cg/y5Kaz4/ROJvb6UfMSzakInxOeKTeTvpdp9+ldBCUWae+7VOhsOUZP1gzZFIHjb2Bif/HqWLELLTu0jObwOEVMkFqFa6lA4Es4BhOsD6qzK1klExdMf9szOw/ua4sOLOBU1yUVsX3oXBRbP+5S2epAaj1b4xmVycvs3EDuy5UxF2Xned1XCeUxbvVa4Nb5SMVH1DP//oL3qAWPc7iL7WWr1H8OzFNZjnq6WPtZrduXcshaCEsduANi8QO/t+t4YQWB2cvmLqPSpSPjWzAlsZ5VfY14d4QgmY8IJ6/xBwQoJAiUiRVlrPJqgQvIm2++6TEuR+/evZXlC1axsVptJFNQD8gArMxbyaqC8nCNgkKjlRkQPCmFjMH1I26K9sGDAmQUkBbAon379oTgrMbAuFB2YNGgFTsoqhA8GK6EDBRLlNcCBRVED5RzY6wNWCBAsTUKFD9NCGDMQAlGamKjoG0otFpA7HkTs0CzIBug/LZr105ZGcAtxlUwrl544YV4SrJruaS+DcXaSM7hesysGaAsgyRzpzDjGJRiWG3ARcXVTQXn4ZkDGeN6X80wRMpnzYpDGbIan+app55Sijqsm0AGuwrua5cuXVR9Zkw7ngWQvJh3cA2w+jEKno2XXnrJkY1LHzOOfZAnIKCACerT6a5h7YPnQxMXun08CyBEXAkZHO/Ro4dySdJEKCx08GwAaxAS7gQEkX5WXcvArcsoaAdzspGQgcUT5gxX60acB7LJ9dkDrvq6jHWDDEOsJljJwNpnxIgRxsPqO9rGs4i5xwq5riuAqxZwBtnskZBhMgOZQYyCtLGugow0D/PLuid3INdzgrEdfT6S/jk4z9HU4ug4S5mrbAHThNNcGwWZUxBQVgtieJzi1et6xerbRsggaw0EivX8gwt0U24/07GCEaqy+9Qu02u4EHuBFkTevzakHK1eqEZIEjLAFsFWv1sznDNybFeuQka8kRr56ZrP0LbjW1V63ZWsfON6ahSsbjshc9FgCYJ2PIqz4YzHosE+WIVdAhCMGlmI1jGhNXnX305dgHsclLeOFTp5tRDbfC84KypoXPSBgAa4duqkhQ1YLyEb2wgeO7P2zKCneJy4ShinRwaR1Krkg7SC3SD/2hn/vQspmp+q9CS1KdPW9XS328jyU4vJw2Bb2GVOl4kGtfiYhq3+H5OYG9Wf7iRc7Fyzxeljdn6eunKSSb05vMJ5v1ZgDDKoR+WeVCxXxP0DQfw22McU6rproTzGdR+tfCIIePo06Wn85vH01644XQfnZWfysG+DfwclSxzmTdfFDGQx61mpvVpYwTgJtiTWs4rrhN4KHQUGGZ7e84KNSWK2l4oVcsMakm9dwUs9VqyxUooVa8Sc0EqKlZpAxmB1Gwo7LGfw8m9UHqzUgTLoB8gArM5Wq1bNpz5YbcNquT6H+5gW/Tzv56b7ZWdgEMCwhqUUVuoRZBqWA3ADwSq+VpgD03LyrRUTKJ5VuJ/o5xWY+oon5gxYpYCo8JU8xZwBqxjcV7gpYb5A3BH8geCxIiA/cB34A7GCuQuWY77MXVbacS0Dyy24VA4YMCBgKbVd2wzGtvGeYC4GliCXYH3lj6C+/v37q3kdePlC5vjTXiDOeXnaSxSRM4L6N34rENUnqTqXRy2jb9d8S+81e89jkFFPF9V7ei9edU9PX7X7n6diAT02YfMvNHXPdBrCaYIj/FSsYCI/ktNYf9xysE8pgaPORnIg3aN0mV2CCnBA0GI8trDym5TFjnEBC7PvORhmn3p94mUtsYJNDFtSRJ6LJLgqFcqGQKuFLMUYQZyZ56Y8y2nQb6tg3F+1/TpBxChiAcGVqkb+6iotrpW+eyuD4NuvzXyVLly/QMPbj/A4Xm5wym3EiDnJhMIFJt8QMDk3W8pEhEUQsk4FWxIyfyLuyQlOcwwLBAQpLhFWKqiBr5GFbC8y5vBnGCvcsFRKiOWDHc+JP/fP7jHuTx9cz/F3/tT14DmPPHeATnM8n8J8XyI4VhpI2GAIrGMOswVVFC/EZEybifJkzsPPV3GPbpHe+vXajD7KlXBgs/e9FQ2541gYnDNnjrJot2JdH3IXEIAOJWgkwn0Jq7meVnQ99Rmr6yVKlFB/nsp5O4Z+eHN78FaHHE9eCEA5h7Lvq8KfvFCw92pAwuDPNeuVr61EREQQ/vwRzBkgUPDnr8AVyI55x9/2k9t5dtwTIyaoD25piKcDiyZPLrDG80Lt+y3O3ABFC4LVr0y8gptSBMog0mdDEPMmoVIsRzEVpHTK9r+oDbvkBBNLkPubjm1QwY5hgWJHNo4rNy85xgaCjHrLXoMXd/wldbF7XBTJXlRBMpUtXXBfXFMMe8MLQWvx56vsOLVdkTE4r02pNgkiYy5c4xhsW34jxHQpZKPrHMZU+7LtaeymsWxhtdUjYZWe3TqRpcrOTFW+Yupa3t/5E9ZBcEFMLDfEbBmyU82CNV0vx6dtu58Tnxq/V9jOMe5P+57O8XX+1HXBiqpi3kpEefWe4H3iHQAWUgm1kgJRBnIHcot/Z5OiwBobyT2wUN6sWbOkeAkB6XOCCJmA9EgqFQQEAUFAEEjRCMBtCT/Y+OvUqZNbl7pQBmnrqR307JT7rgKD2SoilBSeQGI3YM6bdITdquySrhW7cfDaHco1ZzpbqYzu/GOCVhZ96df37PaxJHqZOqVnpR62kEGDl3zi6ELNAjWpX+P+ju3k/MXucYH07w2K1Ce4A7w7/116vOpjylUn0BjuOLFdNZGFU5F35DhO/srxi8fojTlvKAUL7gv/YgLFTmldpg2TPIXYSqSkndUGpS6ZP+2bP/25YXaNcX/a9nZOSp0/V7Nr4dernK1E82eLS/nuDbNQOo64i3CfR4xKWKmLxCEghIyMBEFAEBAEAogAAgfDzQuuVhB86oC9iHuUFF1yAgiXqhruYy+//LIKYAyLmaQm7cq0J5iua4HZf75s+fVmsv9szz77Jy45Z9YqkNX/6y8RXoK+6ziK1hxeyUFZY4NGxuBGNeDAr7k5wG75vOU5KGiVBN27ErlKUadyzgp86TxlE1RnUjrZ7nGBa3+1QV9qH/MQbeI0z5XzVQ0KHFnSZ1auDk/WeJpgEeGvhGcOp4fLd1J1NCzWMEF1mfUB1iKV8ydszJrVG+h9Mn/aO3/6c7/sGuP+tO3unJQ+f5YML6XmC2OkERCuSU0Qf7Rnz54qW2dS63sg+5ugGDKB7FhSrVtiyCTVOyf9FgQCgwCC+7oGu9Ytwd0TgdBFBAFBQBAQBJIOAkinnJktZEQEgeSKgIzx5Hpn5bpCEYGkt/QYiihKnwQBQUAQcINA8+bN3UaRR1BkEUFAEBAEBIGkhYCQMUnrfklvfUdAxrjvmMkZgoC/CAgh4y9ycp4gIAgIAhYQQErthAZCttCMFBEEBAFBQBAQBAQBQUAQEAQEgSSGQPATnycxgKS7goAgIAgIAoKAICAICAKCgCAgCAgCgoAgIAjYjYAQMnYjKvUJAoKAICAICAKCgCAgCAgCgoAgIAgIAoKAIOAFASFkvAAkhwUBQUAQEAQEAUFAEBAEBAFBQBAQBAQBQUAQsBsBiSFjN6Ju6suQIYObI7JbEBAEBAFBQBAQBAQBQUAQEAQEAUFAEBAEUhoCYiGT0u64XK8gIAgIAoKAICAICAKCgCAgCAgCgoAgIAgkOgJCyCT6LZAOCAKCgCAgCAgCgoAgIAgIAoKAICAICAKCQEpDQAiZlHbH5XoFAUFAEBAEBAFBQBAQBAQBQUAQEAQEAUEg0REQQibRb4F0QBAQBAQBQUAQEAQEAUFAEBAEBAFBQBAQBFIaAkLIpLQ7LtcrCAgCgoAgIAgIAoKAICAICAKCgCAgCAgCiY6AEDKJfgukA4KAICAICAKCgCAgCAgCgoAgIAgIAoKAIJDSEBBCJqXdcbleQUAQEAQMCNy5c4euXbtGt27dMuyVr4KAICAICAKCgCAgCAgCgoAgEGgE0vrbwM2bN2nmzJm0e/duOn36NBUuXJiqVq1KzZo1o1SpUvlc7d69e2nXrl3qvNq1a1PBggV9rkNOEATOnTtHK1asoNu3bzuB0apVK8qUKZPTPtkQBJILAleuXFFz8cmTJylNmjSUPXt2ypEjB4WFhVH+/Pk9XuayZcto9OjR1KhRI3rhhRc8lg3WwUOHDtHmzZvp7t27qsnmzZtTtmzZAtK8HXPG2rVr6fjx4079K1q0KFWvXt1pX0I2Vq5cSagTv7W+SjDx9LVvgSp/9OhRioqKooYNGwaqCalXEBAEBAFBQBAQBASBBCPgFyFz4cIF+vLLL+ngwYOUK1cu9YIIQmXjxo3qr2/fvpQ2rfWqb9y4QSNGjKCYmBh1QeHh4ULIJPjWpswKDhw4QJMmTXIochqFunXr+kTIgNABQVixYkW/CEbdblL+3L9/P50/f970EjJnzkwlSpSgjBkzmh7XO/Fs79ixIx5BhuN58+ZVCqYua/aJ+wmF2RcpUqQI5TDtpBIAAAVzSURBVMuXT51y9epVRVTACsSqYE4rWbKk2+KY/9asWaMU8IsXL6q2oCjXqlVL4QVrE/QhWAJFffz48XT58mXTJnv37k316tUzPWbcqckP477E+r5u3Tr6+++/Hc1Xq1YtYISMHXPG1KlTCaSHURo0aGAbIbNhwwb67rvvqEuXLn4RMsHEExiEwvy5fv16+vPPP9UcVbNmTeOtke+CgCAgCAgCgoAgIAiEDALWWRNDlydOnKjImEceeYQ6dOigjuBlfsKECTR79myaMWMGderUyXCG56+wtAEZ8/jjj9Mvv/ziubAcFQQ8IACl+Oeff3YQMlBEhg0b5uEM80N79uyhoUOH0uDBg4OqXJv3JnH2DhkyhK5fv+62cVjCgYjAPADrODPZtm0bff3112aHFK7A15NMmTKFtmzZ4qlIvGNdu3aljh07qv2rVq2isWPHxivjaQeU/zfeeMO0yMKFCwnzH0gXkFKwQkH/gBMsUUD8ZMmShQYNGmR6vt07QSaMGjWK8uTJQ+3btyconmgfpBH+QNJUrlzZ7mYDXh+IB/xt2rRJkf+BbNCOOePjjz92zDno69tvv21bl+FK9ttvv1G6dOmoadOmftUbTDzRwVCYP4EViDJgh/nJl0Uiv0CWkwQBQUAQEAQEAUFAEPADAZ8JmWPHjhFWZGEGrMkYtAvlrGfPnko5AcHSpk0br6vnOA9EDAgcWCJAmRBCBqiIJBQBf9zmjG3qeBr603gspXz/4osvlEI8ZswYgpVFsWLFHJcOqxW4K8LdBeVAwHbu3NlxXH+pUaMGff7554qowL45c+YQSA1YD2AeiYyMpOLFi+vipp8gfV555RWnY5988glFRESoOcd4oH///sZN5UKJuQWuPOjHY4895pY8womeyDtYAILcgfXLk08+SWXKlFFtgYyGxQzmLpAgwbSOgXse5K233iJYFmqBe49V1xbco4EDB1LOnDn16SnyM6FzRkLPdwf60qVL6dSpU9SyZcskc4/0vKk/3V1bIPeDLIUL9T///EPAEG5vIoKAICAICAKCgCAgCIQaAj4TMni5wSowVmNdBS+kbdu2VfEIYJmAmATeBKvNeGmDdYyIICAIhA4CUGhgeQGBe1GBAgUcncP3ChUqUOvWrWn48OEESxZslytXzlEGXzAnaPchbO/bt09Z1Tz66KOKxICi5I2QgVuUsW3Ukz59emUJ4rrfVSlOnTq1UwwVkBau56A+LZ5csKZNm6YUYpAfxngmaBMuQYh79d577+mqgvIJYgzXYyRjfG0Y12K8Hl/Pl/KBRQAEJsZYu3btAttQMqwd7yPz5s2j+fPnCyGTDO+vXJIgIAgIAoKAIJAcEPCZkIGFTASvTLtbfUWsDqyoI/6EN0IGZs2rV69WK3+o78yZM8kB06BfA6yMYmNjHe1CQYMiCgF5hntx+PBhqlKlikPBdhQ2fMFKP+ICoSwCVCIwKKwToDBnzZrVUNLzV8QTQj1QFjNkyKDaLF++vAowipgbrivxCEiqY5VA0dYkgG4FcUgQOFoL+gKyIBCisdTtnThxQin/rm3BfQAkRUoXuMfAeqZfv340btw4guuGHnuu2ERHR6uxBTIG9w/jEc8/rFZC3Z0ApDHGNIJDuyMv8KyAkHIXy8UVD3+3UT8scSB4dtA3BDB1FU/PibEOfR7upeuzqY8ZPxGXR8f1yZ07t3rG8bsAsg2fmH9gPWQ1MDueObgm4ZlD/B5gCGssV3LN2AfX73hO0T4sSeA+hjmkVKlSXsk+13pCbRtBafHcYP4E1lYkMfG0c/7EfYRLHjDAeIOLINwCYdGF3xUrAqIS2O3cuVPV5Sk2lJX6pIwgIAgIAoKAICAICAJ2I/D/N1RhQVJWKNsAAAAASUVORK5CYII=;" vertex="1" parent="1">
          <mxGeometry x="-296" y="-92" width="1124" height="70" as="geometry" />
        </mxCell>
        <mxCell id="izmZIxoykNqFLqpH7VWU-2" value="" style="ellipse;whiteSpace=wrap;html=1;fontSize=16;fillColor=none;strokeColor=#FF3333;strokeWidth=3;" vertex="1" parent="1">
          <mxGeometry x="-74" y="-97" width="193" height="80" as="geometry" />
        </mxCell>
        <mxCell id="izmZIxoykNqFLqpH7VWU-3" style="edgeStyle=none;curved=1;rounded=0;orthogonalLoop=1;jettySize=auto;html=1;exitX=1;exitY=0.5;exitDx=0;exitDy=0;fontSize=12;startSize=8;endSize=8;" edge="1" parent="1" source="izmZIxoykNqFLqpH7VWU-2" target="izmZIxoykNqFLqpH7VWU-2">
          <mxGeometry relative="1" as="geometry" />
        </mxCell>
        <mxCell id="izmZIxoykNqFLqpH7VWU-4" value="" style="ellipse;whiteSpace=wrap;html=1;fontSize=16;fillColor=none;strokeColor=#3399FF;strokeWidth=3;" vertex="1" parent="1">
          <mxGeometry x="122" y="-87" width="45" height="61" as="geometry" />
        </mxCell>
        <mxCell id="izmZIxoykNqFLqpH7VWU-5" value="" style="ellipse;whiteSpace=wrap;html=1;fontSize=16;fillColor=none;strokeColor=#FF8000;strokeWidth=3;" vertex="1" parent="1">
          <mxGeometry x="167" y="-85" width="83" height="61" as="geometry" />
        </mxCell>
        <mxCell id="izmZIxoykNqFLqpH7VWU-6" value="just 1" style="text;html=1;strokeColor=none;fillColor=none;align=center;verticalAlign=middle;whiteSpace=wrap;rounded=0;fontSize=16;fontFamily=Helvetica;fontColor=default;" vertex="1" parent="1">
          <mxGeometry x="252" y="-140" width="60" height="30" as="geometry" />
        </mxCell>
        <mxCell id="izmZIxoykNqFLqpH7VWU-7" value="" style="endArrow=classic;html=1;rounded=0;fontFamily=Helvetica;fontSize=16;fontColor=default;startSize=8;endSize=8;curved=1;exitX=0.5;exitY=1;exitDx=0;exitDy=0;strokeColor=#0000FF;" edge="1" parent="1" source="izmZIxoykNqFLqpH7VWU-6">
          <mxGeometry width="50" height="50" relative="1" as="geometry">
            <mxPoint x="175" y="225" as="sourcePoint" />
            <mxPoint x="275" y="-77" as="targetPoint" />
          </mxGeometry>
        </mxCell>
        <mxCell id="izmZIxoykNqFLqpH7VWU-8" value="minimum 3&amp;nbsp; characters" style="text;html=1;strokeColor=none;fillColor=none;align=center;verticalAlign=middle;whiteSpace=wrap;rounded=0;fontSize=16;fontFamily=Helvetica;fontColor=default;" vertex="1" parent="1">
          <mxGeometry x="383" y="-160" width="101" height="30" as="geometry" />
        </mxCell>
        <mxCell id="izmZIxoykNqFLqpH7VWU-9" value="" style="endArrow=classic;html=1;rounded=0;fontFamily=Helvetica;fontSize=16;fontColor=default;startSize=8;endSize=8;curved=1;entryX=0.631;entryY=0.371;entryDx=0;entryDy=0;entryPerimeter=0;strokeColor=#3333FF;" edge="1" parent="1" target="izmZIxoykNqFLqpH7VWU-1">
          <mxGeometry width="50" height="50" relative="1" as="geometry">
            <mxPoint x="438" y="-121" as="sourcePoint" />
            <mxPoint x="285" y="-67" as="targetPoint" />
          </mxGeometry>
        </mxCell>
        <mxCell id="izmZIxoykNqFLqpH7VWU-14" style="edgeStyle=none;curved=1;rounded=0;orthogonalLoop=1;jettySize=auto;html=1;fontFamily=Helvetica;fontSize=16;fontColor=default;startSize=8;endSize=8;" edge="1" parent="1">
          <mxGeometry relative="1" as="geometry">
            <mxPoint x="115" y="155" as="targetPoint" />
            <mxPoint x="231" y="28" as="sourcePoint" />
          </mxGeometry>
        </mxCell>
        <mxCell id="izmZIxoykNqFLqpH7VWU-10" value="" style="strokeWidth=2;html=1;shape=mxgraph.flowchart.annotation_2;align=left;labelPosition=right;pointerEvents=1;strokeColor=#FF3333;verticalAlign=middle;fontFamily=Helvetica;fontSize=16;fontColor=default;fillColor=none;rotation=-90;" vertex="1" parent="1">
          <mxGeometry x="211" y="-67" width="50" height="122" as="geometry" />
        </mxCell>
        <mxCell id="izmZIxoykNqFLqpH7VWU-11" value="regexp string" style="text;html=1;strokeColor=none;fillColor=none;align=center;verticalAlign=middle;whiteSpace=wrap;rounded=0;fontSize=16;fontFamily=Helvetica;fontColor=default;" vertex="1" parent="1">
          <mxGeometry x="3" y="-162" width="119" height="30" as="geometry" />
        </mxCell>
        <mxCell id="izmZIxoykNqFLqpH7VWU-12" value="" style="endArrow=classic;html=1;rounded=0;fontFamily=Helvetica;fontSize=16;fontColor=default;startSize=8;endSize=8;curved=1;entryX=0.5;entryY=0;entryDx=0;entryDy=0;strokeColor=#3333FF;" edge="1" parent="1" target="izmZIxoykNqFLqpH7VWU-4">
          <mxGeometry width="50" height="50" relative="1" as="geometry">
            <mxPoint x="82" y="-125" as="sourcePoint" />
            <mxPoint x="285" y="-67" as="targetPoint" />
          </mxGeometry>
        </mxCell>
        <mxCell id="izmZIxoykNqFLqpH7VWU-13" value="&lt;font style=&quot;font-size: 38px;&quot;&gt;November 17, 2021&lt;/font&gt;" style="text;html=1;strokeColor=none;fillColor=none;align=center;verticalAlign=middle;whiteSpace=wrap;rounded=0;fontSize=16;fontFamily=Helvetica;fontColor=default;" vertex="1" parent="1">
          <mxGeometry x="34" y="177" width="452" height="30" as="geometry" />
        </mxCell>
        <mxCell id="izmZIxoykNqFLqpH7VWU-15" value="" style="ellipse;whiteSpace=wrap;html=1;fontSize=16;fillColor=none;strokeColor=#3399FF;strokeWidth=3;dashed=1;dashPattern=1 2;" vertex="1" parent="1">
          <mxGeometry x="82" y="161.5" width="39" height="61" as="geometry" />
        </mxCell>
        <mxCell id="izmZIxoykNqFLqpH7VWU-16" value="" style="ellipse;whiteSpace=wrap;html=1;fontSize=16;fillColor=none;strokeColor=#3399FF;strokeWidth=3;dashed=1;dashPattern=1 2;" vertex="1" parent="1">
          <mxGeometry x="115" y="159" width="159" height="61" as="geometry" />
        </mxCell>
        <mxCell id="izmZIxoykNqFLqpH7VWU-18" style="edgeStyle=none;curved=1;rounded=0;orthogonalLoop=1;jettySize=auto;html=1;fontFamily=Helvetica;fontSize=16;fontColor=default;startSize=8;endSize=8;" edge="1" parent="1">
          <mxGeometry relative="1" as="geometry">
            <mxPoint x="221" y="151" as="targetPoint" />
            <mxPoint x="373" y="26" as="sourcePoint" />
          </mxGeometry>
        </mxCell>
        <mxCell id="izmZIxoykNqFLqpH7VWU-17" value="" style="strokeWidth=2;html=1;shape=mxgraph.flowchart.annotation_2;align=left;labelPosition=right;pointerEvents=1;strokeColor=#FF3333;verticalAlign=middle;fontFamily=Helvetica;fontSize=16;fontColor=default;fillColor=none;rotation=-90;" vertex="1" parent="1">
          <mxGeometry x="353.5" y="-82.5" width="50" height="143" as="geometry" />
        </mxCell>
        <mxCell id="izmZIxoykNqFLqpH7VWU-19" value="" style="ellipse;whiteSpace=wrap;html=1;fontSize=16;fillColor=none;strokeColor=#3399FF;strokeWidth=3;" vertex="1" parent="1">
          <mxGeometry x="453" y="-90" width="45" height="61" as="geometry" />
        </mxCell>
        <mxCell id="izmZIxoykNqFLqpH7VWU-20" value="" style="ellipse;whiteSpace=wrap;html=1;fontSize=16;fillColor=none;strokeColor=#3399FF;strokeWidth=3;" vertex="1" parent="1">
          <mxGeometry x="611" y="-90" width="29" height="61" as="geometry" />
        </mxCell>
        <mxCell id="izmZIxoykNqFLqpH7VWU-21" value="" style="strokeWidth=2;html=1;shape=mxgraph.flowchart.annotation_2;align=left;labelPosition=right;pointerEvents=1;strokeColor=#FF3333;verticalAlign=middle;fontFamily=Helvetica;fontSize=16;fontColor=default;fillColor=none;rotation=-90;" vertex="1" parent="1">
          <mxGeometry x="529" y="-64" width="50" height="97" as="geometry" />
        </mxCell>
        <mxCell id="izmZIxoykNqFLqpH7VWU-22" style="edgeStyle=none;curved=1;rounded=0;orthogonalLoop=1;jettySize=auto;html=1;entryX=0.606;entryY=-0.167;entryDx=0;entryDy=0;entryPerimeter=0;fontFamily=Helvetica;fontSize=16;fontColor=default;startSize=8;endSize=8;" edge="1" parent="1" target="izmZIxoykNqFLqpH7VWU-13">
          <mxGeometry relative="1" as="geometry">
            <mxPoint x="547" y="21" as="sourcePoint" />
          </mxGeometry>
        </mxCell>
        <mxCell id="izmZIxoykNqFLqpH7VWU-24" style="edgeStyle=none;curved=1;rounded=0;orthogonalLoop=1;jettySize=auto;html=1;fontFamily=Helvetica;fontSize=16;fontColor=default;startSize=8;endSize=8;" edge="1" parent="1">
          <mxGeometry relative="1" as="geometry">
            <mxPoint x="699" y="14" as="sourcePoint" />
            <mxPoint x="431.0045843230404" y="177" as="targetPoint" />
          </mxGeometry>
        </mxCell>
        <mxCell id="izmZIxoykNqFLqpH7VWU-23" value="" style="strokeWidth=2;html=1;shape=mxgraph.flowchart.annotation_2;align=left;labelPosition=right;pointerEvents=1;strokeColor=#FF3333;verticalAlign=middle;fontFamily=Helvetica;fontSize=16;fontColor=default;fillColor=none;rotation=-90;" vertex="1" parent="1">
          <mxGeometry x="679.5" y="-81.5" width="50" height="126" as="geometry" />
        </mxCell>
      </root>
    </mxGraphModel>
  </diagram>
</mxfile>
